# xmcd CD database file
#
# Track frame offsets:
#	150
#	21150
#	45088
#	70720
#	92230
#	115152
#	133241
#	146697
#	170462
#	192222
#	200904
#	225987
#	255845
#	281452
#
# Disc length: 4300 seconds
#
# Revision: 2
# Processed by: cddbd v1.4b41PL1 Copyright (c) Steve Scherf et al.
# Submitted via: Feurio! 1.51.14ß - http://www.feurio.com
#
DISCID=bd10ca0e
DTITLE=Blues Traveler - Four
DYEAR=1900
DGENRE=
TTITLE0=Run Around
TTITLE1=Stand
TTITLE2=Look Around
TTITLE3=Fallible
TTITLE4=The Mountains Win Again
TTITLE5=Freedom
TTITLE6=Crash Burn
TTITLE7=Price To Pay
TTITLE8=Hook
TTITLE9=The Good, The Bad, And The Ugly
TTITLE10=Just Wait
TTITLE11=Brother John
TTITLE12=I Want To Take You Higher (Bonus Track)
TTITLE13=Mountain Cry (Bonus Track)
EXTD=
EXTT0=
EXTT1=
EXTT2=
EXTT3=
EXTT4=
EXTT5=
EXTT6=
EXTT7=
EXTT8=
EXTT9=
EXTT10=
EXTT11=
EXTT12=
EXTT13=
PLAYORDER=
